<svg height='100px' width='100px'  fill="#4db6ac" xmlns="http://www.w3.org/2000/svg" xmlns:cc="http://creativecommons.org/ns#" xmlns:dc="http://purl.org/dc/elements/1.1/" xmlns:rdf="http://www.w3.org/1999/02/22-rdf-syntax-ns#" version="1.1" viewBox="0 0 100 100" x="0px" y="0px"><g transform="matrix(3.7795 0 0 3.7795 -213.26 -515.29)"><path d="m78.394 136.68s-0.20798 2.686-5.0183 5.4519c-4.8103 2.7659-6.6984 5.326-6.8802 9.3932-0.09557 2.1373 1.0065 4.2209 1.8914 5.318 1.6537-2.5317 3.3345-5.033 5.4777-7.014-2.3617 3.9251-4.1113 7.8869-6.0968 11.83-1.7716-1.7005-3.0907-3.5389-5.2793-5.1372 2.5564 1.3983 3.3121 2.05 4.1078 2.7182 0.27155-0.73127 0.48366-2.0184 0.05788-3.1233-0.81024-2.1026-2.2511-3.1145-5.2617-3.7207-3.0106-0.6062-3.5915-1.9792-3.5915-1.9792 1e-6 0-1.1558 6.8255 1.788 9.1979 1.9322 1.5571 4.1077 1.2634 5.3785 0.87798 0.58157 0.68496 1.256 1.361 1.8335 2.0123l3.1368-8e-3c0.61569-1.4471 1.3551-2.9359 1.9585-4.4431 2.3984-0.0688 6.2935-0.81346 8.7106-4.5899 3.6825-5.7536-2.2128-16.785-2.2128-16.785z"></path></g></svg>